<?xml version="1.0" encoding="iso-8859-1"?>
<!-- Generator: Adobe Illustrator 16.0.0, SVG Export Plug-In . SVG Version: 6.00 Build 0)  -->
<!DOCTYPE svg PUBLIC "-//W3C//DTD SVG 1.1//EN" "http://www.w3.org/Graphics/SVG/1.1/DTD/svg11.dtd">
<svg version="1.1" id="Capa_1" xmlns="http://www.w3.org/2000/svg" xmlns:xlink="http://www.w3.org/1999/xlink" x="0px" y="0px"
	 width="61.84px" height="61.84px" viewBox="0 0 61.84 61.84" style="enable-background:new 0 0 61.84 61.84;" xml:space="preserve"
	>
<g>
	<g>
		<path d="M21.258,36.616c-10.52,0-18.167-0.242-20.458-0.645l-0.591-0.105c-0.304,1.006-0.344,2.508,0.355,4.76
			c0,0,31.883,2.094,45.135,0.997c13.251-1.097,16.141-3.088,16.141-3.088V34.69c-1.071,0.429-4.131,0.978-14.279,1.417
			C40.118,36.433,30.531,36.616,21.258,36.616z"/>
		<path d="M10.691,32.573h10.936c0.998-0.588,4.917-2.792,7.508-2.792c0.467,0,0.887,0.069,1.25,0.206
			c0.245,0.092,0.489,0.138,0.724,0.138c0.336,0,0.559-0.093,0.667-0.167c-0.143-0.136-0.529-0.379-1.339-0.572
			c-2.311-0.547-4.951-1.988-6.016-4.003c-4.308,0.88-12.715,1.058-15.986-0.216c-3.886-1.513-5.182-3.071-6.177-2.573
			c-0.315,0.158-0.431,0.586-0.442,1.097l0.504,0.377C3.068,24.626,9.218,29.291,10.691,32.573z"/>
		<path d="M50.979,30.365c0,0,0,0-7.97-2.392c-7.849-2.355-15.372-8.075-15.826-8.075c-0.008,0-0.013,0.001-0.016,0.004
			c-2.512,1.944-2.699,3.773-1.8,5.256c0.991,1.633,3.302,2.843,5.288,3.313c3.205,0.759,2.269,2.59,0.455,2.59
			c-0.329,0-0.687-0.061-1.053-0.198c-0.269-0.101-0.58-0.146-0.92-0.146c-2.696,0-7.249,2.792-7.249,2.792H10.03
			c-0.636-2.768-6.99-7.715-8.09-8.556c-0.104-0.081-0.18-0.135-0.18-0.135c-1.011,2.387-0.882,8.036-0.818,9.728
			c0.011,0.308,0.022,0.501,0.022,0.501c2.38,0.419,10.616,0.631,20.294,0.631c14.084,0,31.214-0.446,37.807-1.348
			c1.769-0.24,2.788-0.515,2.774-0.821C61.74,31.276,50.979,30.365,50.979,30.365z"/>
	</g>
</g>
<g>
</g>
<g>
</g>
<g>
</g>
<g>
</g>
<g>
</g>
<g>
</g>
<g>
</g>
<g>
</g>
<g>
</g>
<g>
</g>
<g>
</g>
<g>
</g>
<g>
</g>
<g>
</g>
<g>
</g>
</svg>
