<?xml version="1.0" encoding="iso-8859-1"?>
<!-- Generator: Adobe Illustrator 19.0.0, SVG Export Plug-In . SVG Version: 6.00 Build 0)  -->
<svg version="1.1" id="Layer_1" xmlns="http://www.w3.org/2000/svg" xmlns:xlink="http://www.w3.org/1999/xlink" x="0px" y="0px"
	 viewBox="0 0 512.436 512.436" style="enable-background:new 0 0 512.436 512.436;" xml:space="preserve">
<g transform="translate(-1)">
	<g>
		<path d="M510.822,285.063l-6.806-15.655c-1.02-4.737-3.437-9.475-7.7-14.212c-15.36-15.36-48.64-23.04-106.667-21.333
			l-39.836-18.429c2.141-4.158,0.448-8.979-2.831-11.438c-4.267-1.707-9.387-0.853-11.947,3.413l-0.558,0.93l-19.37-8.961
			l0.302-0.503c2.56-4.267,0.853-9.387-2.56-11.947c-4.267-1.707-9.387-0.853-11.947,3.413l-1.157,1.929l-19.37-8.961l0.901-1.501
			c2.56-4.267,0.853-9.387-2.56-11.947c-4.267-1.707-9.387-0.853-11.947,3.413l-1.757,2.928l-19.37-8.961l1.5-2.5
			c2.56-4.267,0.853-9.387-2.56-11.947c-4.267-1.707-9.387-0.853-11.947,3.413l-2.356,3.926l-23.244-10.753
			c-4.267-1.707-8.533-0.853-11.093,3.413c-0.843,0.843-2.523,3.357-5.033,6.71c-0.302,0.317-0.606,0.636-0.94,0.97
			c-2.307,2.692-4.797,5.383-7.451,8.075c-2.535,2.497-5.218,4.978-7.909,7.285c-0.317,0.317-0.595,0.672-0.853,1.043
			c-0.566,0.506-1.129,1.011-1.707,1.517c-35.323,29.436-79.772,35.636-134.147,5.582c-1.265-1.546-3.016-2.636-4.946-3.022
			c-7.68-0.853-14.507-11.093-14.507-20.48c0-5.12-3.413-8.533-8.533-8.533s-8.533,3.413-8.533,8.533
			c0,14.066,8.698,28.704,20.355,34.852c-0.264,2.91-0.92,6.213-1.582,9.521c-2.161,10.806-4.316,21.605-5.964,31.898
			c-0.364,0.693-0.663,1.438-0.863,2.236c-5.973,30.72-10.24,52.053-11.947,56.32c-0.535,1.338-0.482,2.844,0,4.281v48.625
			c0,4.267,3.413,8.533,8.533,8.533c0.853,0,0.853,0,5.12,0c5.973,0,8.533,0,14.507,0c15.36,0,32.427,0.853,51.2,0.853
			c52.907,0.853,105.813,2.56,154.453,3.413c25.6,0.853,50.347,1.707,72.533,1.707c14.507,0,28.16,0.853,40.96,0.853
			c70.827,2.56,118.613-11.093,149.333-32.427C512.529,320.903,516.796,302.129,510.822,285.063z M86.716,293.596
			c-18.773-0.853-36.693-1.707-52.907-3.413c-5.051,0-9.271-0.827-13.48-0.849c1.756-8.578,5.055-21.938,8.36-40.111
			c0-1.397,0.008-1.663,0.477-2.646c4.042-0.759,7.334-0.767,10.617-0.767c25.6,0,46.933,21.333,46.933,46.933V293.596z
			 M393.657,252.849c0.377-0.358,0.756-0.714,1.128-1.077c49.796-0.759,77.697,6.044,87.877,16.224
			c2.916,2.916,3.959,5.208,3.67,7.411c-11.41,10.926-46.716,18.006-100.159,21.589
			C383.264,296.466,392.022,259.619,393.657,252.849z M221.211,175.251l-14.175,23.625c-2.56,4.267-0.853,9.387,2.56,11.947
			c4.267,1.707,9.387,0.853,11.947-3.413l14.963-24.938l19.284,9.104l-14.621,24.368c-2.56,4.267-0.853,9.387,2.56,11.947
			c4.267,1.707,9.387,0.853,11.947-3.413l15.409-25.681l19.284,9.104l-15.066,25.111c-2.56,4.267-0.853,9.387,2.56,11.947
			c4.267,1.707,9.387,0.853,11.947-3.413l15.854-26.424l19.284,9.104l-15.512,25.853c-2.56,4.267-0.853,9.387,2.56,11.947
			c4.267,1.707,9.387,0.853,11.947-3.413l16.3-27.166l34.047,16.073c-19.627,15.36-46.08,23.893-74.24,23.893
			c-57.975,0-104.875-37.48-110.065-85.206c4.705-4.187,8.93-8.64,12.458-13.124c0.694-0.788,1.377-1.576,2.033-2.364
			c0.853-0.853,1.707-1.707,1.707-2.56L221.211,175.251z M174.262,198.571c11.532,51.812,63.719,89.905,125.787,89.905
			c27.394,0,53.047-7.388,74.179-20.604l-4.95,30.111c-10.023,0.505-20.585,0.903-31.659,1.196c-0.36,0.009-0.716,0.02-1.078,0.029
			c-0.679,0.018-1.367,0.033-2.049,0.05c-12.861,0.311-26.393,0.49-40.558,0.533c-12.822,0.037-26.153-0.038-39.964-0.222
			c-47.597-0.835-98.464-2.489-150.199-4.959c0.009-0.641,0.013-1.27,0.013-1.868c0-34.987-29.013-64-64-64
			c-2.278,0-4.556,0.107-6.835,0.328c1.301-6.845,2.49-13.824,3.421-20.808c0-1.707,0.853-3.413,0.853-5.12
			C90.555,229.809,136.672,224.74,174.262,198.571z M487.782,319.196c-27.307,19.627-71.68,31.573-138.24,29.013
			c-12.8,0-26.453-0.853-41.813-0.853c-22.187-0.853-46.933-1.707-72.533-1.707c-49.493-0.853-102.4-2.56-154.453-3.413
			c-18.773-0.853-35.84-0.853-51.2-0.853c-4.267,0-6.827,0-11.093,0v-33.28c5.12,0,10.24,0.853,16.213,0.853
			c19.627,1.707,41.813,2.56,64.853,3.413c52.907,2.56,105.813,4.267,154.453,5.12c128,1.707,212.48-5.12,240.64-24.747v0.853
			C498.022,302.983,495.462,313.223,487.782,319.196z"/>
	</g>
</g>
<g>
</g>
<g>
</g>
<g>
</g>
<g>
</g>
<g>
</g>
<g>
</g>
<g>
</g>
<g>
</g>
<g>
</g>
<g>
</g>
<g>
</g>
<g>
</g>
<g>
</g>
<g>
</g>
<g>
</g>
</svg>
