<?xml version="1.0" encoding="iso-8859-1"?>
<!-- Generator: Adobe Illustrator 19.0.0, SVG Export Plug-In . SVG Version: 6.00 Build 0)  -->
<svg version="1.1" id="Layer_1" xmlns="http://www.w3.org/2000/svg" xmlns:xlink="http://www.w3.org/1999/xlink" x="0px" y="0px"
	 viewBox="0 0 512.013 512.013" style="enable-background:new 0 0 512.013 512.013;" xml:space="preserve">
<g>
	<path style="fill:#F79200;" d="M35.513,180.87c-4.873,0-8.828-3.946-8.828-8.828c0-9.852-8.015-17.858-17.858-17.858
		c-4.882,0-8.828-3.955-8.828-8.828c0-4.882,3.946-8.828,8.828-8.828c19.58,0,35.513,15.925,35.513,35.513
		C44.341,176.924,40.386,180.87,35.513,180.87"/>
	<path style="fill:#FFC571;" d="M473.393,287.009c-26.377,0.777-55.852-15.086-55.852-15.086l-70.744-28.301l-11.555,15.298
		c-5.297,7.018-15.007,9.905-22.784,5.809c-9.913-5.235-12.429-17.77-5.967-26.333l7.698-10.178
		c-9.534-5.323-18.591-11.396-27.392-17.832l-9.966,13.197c-5.297,7.018-15.007,9.913-22.784,5.809
		c-9.913-5.235-12.42-17.77-5.959-26.333l11.529-15.263c-6.497-6.215-12.774-12.685-18.644-19.553
		c-21.972-25.759-48.605-51.765-64.662-48.958c-3.734,0.653-7.459,1.677-11.273,2.94c-6.824,17.09-26.289,33.589-52.206,42.019
		c-26.553,8.633-52.586,6.435-68.017-3.999c-5.111-3.46-10.893-5.694-17.064-5.65h-1.271v88.073c0,0-52.824,44.862-9.234,106.134
		h46.548h359.689c5.349,0,10.717-1.827,14.398-5.711c2.145-2.26,4.723-4.017,7.627-5.129c14.521-5.588,67.734-18.105,66.454-28.804
		C510.469,296.622,499.77,286.232,473.393,287.009"/>
	<g>
		<path style="fill:#F79200;" d="M251.535,227.792L251.535,227.792c-7.777-5.879-9.331-16.949-3.452-24.726l15.96-21.133
			c5.879-7.786,16.94-9.331,24.726-3.452c7.786,5.87,9.322,16.949,3.452,24.726l-15.96,21.133
			C270.391,232.118,259.312,233.672,251.535,227.792"/>
		<path style="fill:#F79200;" d="M309.945,263.129L309.945,263.129c-7.786-5.879-9.331-16.949-3.452-24.735l15.96-21.124
			c5.879-7.786,16.94-9.331,24.726-3.46c7.786,5.879,9.322,16.949,3.452,24.735l-15.96,21.133
			C328.8,267.455,317.722,269,309.945,263.129"/>
	</g>
	<path style="fill:#DEDEE1;" d="M511.962,309.154L511.962,309.154c1.562,10.62-51.933,23.217-66.454,28.813
		c-2.728,1.042-5.164,2.639-7.23,4.705c-0.98,0.98-2.048,1.854-3.187,2.613c-3.416,2.277-7.451,3.513-11.608,3.513H63.785H17.246
		c-11.838,15.545-9.516,26.58-4.228,33.73c5.094,6.886,13.594,10.408,22.157,10.408h349.122c39.389,0,78.265-8.828,113.779-25.838
		l4.361-2.083C513.286,359.86,511.962,309.154,511.962,309.154"/>
	<polygon style="fill:#F79200;" points="114.755,233.836 127.723,260.124 158.893,264.335 135.738,284.789 141.238,313.681 
		114.755,300.043 88.272,313.681 93.772,284.789 70.617,264.335 101.787,260.124 	"/>
</g>
<g>
</g>
<g>
</g>
<g>
</g>
<g>
</g>
<g>
</g>
<g>
</g>
<g>
</g>
<g>
</g>
<g>
</g>
<g>
</g>
<g>
</g>
<g>
</g>
<g>
</g>
<g>
</g>
<g>
</g>
</svg>
