<?xml version="1.0" encoding="iso-8859-1"?>
<!-- Generator: Adobe Illustrator 19.0.0, SVG Export Plug-In . SVG Version: 6.00 Build 0)  -->
<svg version="1.1" id="Layer_1" xmlns="http://www.w3.org/2000/svg" xmlns:xlink="http://www.w3.org/1999/xlink" x="0px" y="0px"
	 viewBox="0 0 503.475 503.475" style="enable-background:new 0 0 503.475 503.475;" xml:space="preserve">
<g transform="translate(-1 -1)">
	<path style="fill:#4482C3;" d="M466.689,283.215c-25.93,0.764-54.905-14.831-54.905-14.831l-69.554-27.822l-11.915,15.777
		c-5.771,7.654-16.662,9.173-24.307,3.402c-7.645-5.78-9.164-16.662-3.384-24.316l7.559-10.014
		c-9.372-5.224-18.276-11.203-26.928-17.521l-10.353,13.711c-5.78,7.654-16.662,9.173-24.316,3.402
		c-7.645-5.78-9.164-16.662-3.384-24.316l11.333-15.004c-6.387-6.109-12.557-12.47-18.328-19.23
		c-21.599-25.314-47.79-50.879-63.566-48.119c-30.512,5.337-60.59,34.712-147.525,34.712v86.78c0,0-52.319,43.893-8.852,104.136
		h45.768h353.592c5.458,0,10.691-2.169,14.544-6.023c2.031-2.031,4.426-3.601,7.107-4.643c14.275-5.493,66.378-17.79,65.128-28.308
		C502.928,292.665,492.619,282.451,466.689,283.215"/>
	<g>
		<path style="fill:#285680;" d="M248.588,225.003L248.588,225.003c-7.645-5.78-9.164-16.662-3.393-24.316l15.69-20.766
			c5.78-7.654,16.662-9.173,24.316-3.402c7.654,5.78,9.164,16.662,3.384,24.316l-15.681,20.775
			C267.124,229.255,256.242,230.774,248.588,225.003"/>
		<path style="fill:#285680;" d="M306.012,259.74L306.012,259.74c-7.654-5.78-9.173-16.662-3.393-24.316l15.69-20.775
			c5.771-7.645,16.662-9.164,24.307-3.393c7.654,5.78,9.164,16.662,3.393,24.316l-15.69,20.766
			C324.548,263.992,313.665,265.511,306.012,259.74"/>
	</g>
	<path style="fill:#4482C3;" d="M210.054,136.901c-13.364-12.071-26.181-20.185-35.415-18.571
		c-30.512,5.346-60.59,34.712-147.525,34.712v41.168c11.177,1.415,22.762,2.222,34.712,2.222
		C130.946,196.432,189.47,171.466,210.054,136.901"/>
	<path style="fill:#285680;" d="M12.588,257.325c-11.385,18.215-21.278,49.274,5.675,86.632h45.768h12.878
		c1.432-5.554,2.274-11.342,2.274-17.356C79.182,289.216,49.608,258.826,12.588,257.325"/>
	<path style="fill:#DEDEE1;" d="M504.401,304.986v0.009c1.536,10.431-50.844,22.814-65.128,28.308
		c-2.673,1.033-5.077,2.603-7.099,4.634c-0.972,0.963-2.022,1.822-3.141,2.569c-3.35,2.239-7.316,3.454-11.412,3.454H64.029H18.261
		c-11.785,15.299-9.494,26.147-4.261,33.167c5.042,6.777,13.425,10.223,21.868,10.223h343.24c38.704,0,76.939-8.678,111.85-25.4
		l4.287-2.057C505.911,354.832,504.401,304.986,504.401,304.986"/>
	<g>
		<path style="fill:#285680;" d="M226.706,300.57h-52.068c-9.58,0-17.356-7.775-17.356-17.356s7.775-17.356,17.356-17.356h52.068
			c9.58,0,17.356,7.775,17.356,17.356S236.287,300.57,226.706,300.57"/>
		<path style="fill:#285680;" d="M210.054,136.901c-20.584,34.564-79.108,59.531-148.228,59.531c-11.95,0-23.535-0.807-34.712-2.222
			v31.892c16.306,3.202,33.783,5.042,52.068,5.042c76.574,0,140.158-30.633,153.505-71.029L210.054,136.901z"/>
	</g>
</g>
<g>
</g>
<g>
</g>
<g>
</g>
<g>
</g>
<g>
</g>
<g>
</g>
<g>
</g>
<g>
</g>
<g>
</g>
<g>
</g>
<g>
</g>
<g>
</g>
<g>
</g>
<g>
</g>
<g>
</g>
</svg>
