<?xml version="1.0" encoding="iso-8859-1"?>
<!-- Generator: Adobe Illustrator 19.0.0, SVG Export Plug-In . SVG Version: 6.00 Build 0)  -->
<svg version="1.1" id="Layer_1" xmlns="http://www.w3.org/2000/svg" xmlns:xlink="http://www.w3.org/1999/xlink" x="0px" y="0px"
	 viewBox="0 0 512 512" style="enable-background:new 0 0 512 512;" xml:space="preserve">
<g>
	<g>
		<path d="M44.138,208.712c0,4.882-3.946,8.828-8.828,8.828s-8.828-3.946-8.828-8.828s3.946-8.828,8.828-8.828
			S44.138,203.83,44.138,208.712"/>
		<path d="M61.793,235.195c0,4.882-3.946,8.828-8.828,8.828s-8.828-3.946-8.828-8.828s3.946-8.828,8.828-8.828
			S61.793,230.313,61.793,235.195"/>
		<path d="M26.483,235.195c0,4.882-3.946,8.828-8.828,8.828s-8.828-3.946-8.828-8.828s3.946-8.828,8.828-8.828
			S26.483,230.313,26.483,235.195"/>
		<path d="M97.104,235.195c0,4.882-3.946,8.828-8.828,8.828s-8.828-3.946-8.828-8.828s3.946-8.828,8.828-8.828
			S97.104,230.313,97.104,235.195"/>
		<path d="M79.448,261.678c0,4.882-3.946,8.828-8.828,8.828c-4.882,0-8.828-3.946-8.828-8.828s3.946-8.828,8.828-8.828
			C75.502,252.85,79.448,256.796,79.448,261.678"/>
		<path d="M44.138,261.678c0,4.882-3.946,8.828-8.828,8.828s-8.828-3.946-8.828-8.828s3.946-8.828,8.828-8.828
			S44.138,256.796,44.138,261.678"/>
		<path d="M26.483,288.16c0,4.882-3.946,8.828-8.828,8.828s-8.828-3.946-8.828-8.828s3.946-8.828,8.828-8.828
			S26.483,283.279,26.483,288.16"/>
		<path d="M61.793,288.16c0,4.882-3.946,8.828-8.828,8.828s-8.828-3.946-8.828-8.828s3.946-8.828,8.828-8.828
			S61.793,283.279,61.793,288.16"/>
		<path d="M97.104,288.16c0,4.882-3.946,8.828-8.828,8.828s-8.828-3.946-8.828-8.828s3.946-8.828,8.828-8.828
			S97.104,283.279,97.104,288.16"/>
		<path d="M79.448,314.643c0,4.882-3.946,8.828-8.828,8.828c-4.882,0-8.828-3.946-8.828-8.828s3.946-8.828,8.828-8.828
			C75.502,305.816,79.448,309.762,79.448,314.643"/>
		<path d="M44.138,314.643c0,4.882-3.946,8.828-8.828,8.828s-8.828-3.946-8.828-8.828s3.946-8.828,8.828-8.828
			S44.138,309.762,44.138,314.643"/>
	</g>
	<path style="fill:#24AE5F;" d="M18.113,332.298c0,0-46.292-73.993,9.137-165.994c0,0,20.003-28.001,27.436,18.291
		c0,0,19.43,55.993,118.846-27.427c0,0,29.722-21.142,45.718-9.145c16.004,11.997,156.186,98.86,164.749,100.573
		c4.617,0.918,28.116,11.449,48.825,20.983c16.163,7.424,32.812,13.63,49.434,19.959c14.566,5.535,29.74,18.732,29.74,42.761H18.113
		z"/>
	<path style="fill:#ACAAAF;" d="M8.828,341.126v17.646c0,4.882,3.946,8.828,8.828,8.828l448.459,0.009c0,0,45.683,3.01,45.886-35.31
		H17.655C12.774,332.298,8.828,336.244,8.828,341.126"/>
	<path style="fill:#DEDEE1;" d="M160.449,167.66l180.639,113.426c21.751,13.656,50.467,7.089,64.124-14.663l4.581-7.3
		c-12.482-5.553-22.89-9.949-25.794-10.531c-8.563-1.704-148.745-88.567-164.749-100.573c-15.996-11.997-45.718,9.154-45.718,9.154
		C168.994,160.978,164.668,164.412,160.449,167.66"/>
	<g>
		<path style="fill:#24AE5F;" d="M256,208.712c-2.26,0-4.52-0.865-6.241-2.586c-3.452-3.452-3.452-9.031,0-12.482l26.483-26.483
			c3.452-3.452,9.031-3.452,12.482,0s3.452,9.031,0,12.482l-26.483,26.483C260.52,207.847,258.26,208.712,256,208.712"/>
		<path style="fill:#24AE5F;" d="M291.31,226.367c-2.26,0-4.52-0.865-6.241-2.586c-3.452-3.452-3.452-9.031,0-12.482l24.135-24.135
			c3.452-3.452,9.039-3.452,12.482,0c3.452,3.443,3.452,9.031,0,12.482l-24.135,24.135
			C295.83,225.502,293.57,226.367,291.31,226.367"/>
		<path style="fill:#24AE5F;" d="M326.621,252.85c-2.26,0-4.52-0.865-6.241-2.586c-3.452-3.452-3.452-9.031,0-12.482l26.209-26.209
			c3.443-3.443,9.031-3.443,12.482,0c3.443,3.452,3.443,9.039,0,12.482l-26.209,26.209
			C331.141,251.985,328.881,252.85,326.621,252.85"/>
	</g>
	<g>
		<path style="fill:#DEDEE1;" d="M105.931,252.85c0-18.282-4.626-35.487-12.782-50.503c-30.702,4.52-38.471-17.752-38.471-17.752
			c-7.424-46.292-27.427-18.291-27.427-18.291c-55.428,92.001-9.137,165.994-9.137,165.994h51.791
			C91.948,312.886,105.931,284.532,105.931,252.85"/>
		<path style="fill:#DEDEE1;" d="M185.379,288.169c-4.873,0-8.81-3.946-8.828-8.81v-0.026c-0.371-2.825-10.399-8.828-17.655-8.828
			c-4.882,0-8.828-3.946-8.828-8.828s3.946-8.828,8.828-8.828c8.271,0,19.023,3.655,26.483,9.905
			c7.459-6.25,18.211-9.905,26.483-9.905c4.882,0,8.828,3.946,8.828,8.828s-3.946,8.828-8.828,8.828
			c-7.247,0-17.267,5.994-17.655,8.845c0,0.141,0,0.274-0.009,0.406C193.986,284.444,190.12,288.169,185.379,288.169"/>
	</g>
</g>
<g>
</g>
<g>
</g>
<g>
</g>
<g>
</g>
<g>
</g>
<g>
</g>
<g>
</g>
<g>
</g>
<g>
</g>
<g>
</g>
<g>
</g>
<g>
</g>
<g>
</g>
<g>
</g>
<g>
</g>
</svg>
